<svg xmlns="http://www.w3.org/2000/svg" xmlns:xlink="http://www.w3.org/1999/xlink" fill="none" stroke="none" stroke-linecap="square" stroke-miterlimit="10" version="1.1" viewBox="0 0 614.52 508.113"><clipPath id="p.0"><path d="m0 0l614.5197 0l0 508.11285l-614.5197 0l0 -508.11285z" clip-rule="nonzero"/></clipPath><g clip-path="url(#p.0)"><path fill="#000" fill-opacity="0" fill-rule="evenodd" d="m0 0l614.5197 0l0 508.11285l-614.5197 0z"/><path fill="#000" fill-opacity="0" fill-rule="evenodd" d="m599.7507 82.73227l-66.44885 265.7953l-359.4803 0l-66.448814 -265.7953z"/><path fill-rule="evenodd" stroke="#4a86e8" stroke-linecap="butt" stroke-linejoin="round" stroke-width="24" d="m599.7507 82.73227l-66.44885 265.7953l-359.4803 0l-66.448814 -265.7953z"/><path fill="#000" fill-opacity="0" fill-rule="evenodd" d="m436.64566 454.99213l0 0c0 -21.334717 17.57019 -38.629913 39.24411 -38.629913l0 0c10.408173 0 20.390076 4.069916 27.749756 11.314423c7.3597107 7.2445374 11.494324 17.07019 11.494324 27.31549l0 0c0 21.334717 -17.57016 38.629913 -39.24408 38.629913l0 0c-21.67392 0 -39.24411 -17.295197 -39.24411 -38.629913z"/><path fill-rule="evenodd" stroke="#4a86e8" stroke-linecap="butt" stroke-linejoin="round" stroke-width="24" d="m436.64566 454.99213l0 0c0 -21.334717 17.57019 -38.629913 39.24411 -38.629913l0 0c10.408173 0 20.390076 4.069916 27.749756 11.314423c7.3597107 7.2445374 11.494324 17.07019 11.494324 27.31549l0 0c0 21.334717 -17.57016 38.629913 -39.24408 38.629913l0 0c-21.67392 0 -39.24411 -17.295197 -39.24411 -38.629913z"/><path fill="#000" fill-opacity="0" fill-rule="evenodd" d="m174.44095 453.85565l0 0c0 -21.334717 17.570175 -38.629944 39.244095 -38.629944l0 0c10.408173 0 20.39006 4.0699463 27.749756 11.314453c7.3596954 7.244507 11.494339 17.07019 11.494339 27.31549l0 0c0 21.334717 -17.57019 38.629913 -39.244095 38.629913l0 0c-21.67392 0 -39.244095 -17.295197 -39.244095 -38.629913z"/><path fill-rule="evenodd" stroke="#4a86e8" stroke-linecap="butt" stroke-linejoin="round" stroke-width="24" d="m174.44095 453.85565l0 0c0 -21.334717 17.570175 -38.629944 39.244095 -38.629944l0 0c10.408173 0 20.39006 4.0699463 27.749756 11.314453c7.3596954 7.244507 11.494339 17.07019 11.494339 27.31549l0 0c0 21.334717 -17.57019 38.629913 -39.244095 38.629913l0 0c-21.67392 0 -39.244095 -17.295197 -39.244095 -38.629913z"/><path fill="#000" fill-opacity="0" fill-rule="evenodd" d="m174.44095 347.32285l-83.12336 -332.4882l-91.31759 -1.1706038"/><path fill-rule="evenodd" stroke="#4a86e8" stroke-linecap="butt" stroke-linejoin="round" stroke-width="24" d="m174.44095 347.32285l-83.12336 -332.4882l-91.31759 -1.1706038"/><path fill="#000" fill-opacity="0" fill-rule="evenodd" d="m175.61154 349.66403l-59.708656 63.22049l448.39105 2.3411865"/><path fill-rule="evenodd" stroke="#4a86e8" stroke-linecap="butt" stroke-linejoin="round" stroke-width="24" d="m175.61154 349.66403l-59.708656 63.22049l448.39105 2.3411865"/><path fill="#90f" fill-rule="evenodd" d="m271.7248 215.62985l0 0c0 -44.54779 36.639587 -80.660904 81.83679 -80.660904l0 0c21.704468 0 42.51999 8.498184 57.86737 23.62503c15.347351 15.126862 23.969421 35.64328 23.969421 57.035873l0 0c0 44.54779 -36.639587 80.66092 -81.83679 80.66092l0 0c-45.197205 0 -81.83679 -36.11313 -81.83679 -80.66092zm26.960083 0l0 0c0 29.658142 24.569153 53.700806 54.87671 53.700806c30.307556 0 54.87671 -24.042664 54.87671 -53.700806c0 -29.658127 -24.569153 -53.700806 -54.87671 -53.700806l0 0c-30.307556 0 -54.87671 24.042679 -54.87671 53.700806z"/><path fill="#90f" fill-rule="evenodd" d="m327.008 160.59006l13.276794 -56.764915l26.553589 0l13.276794 56.764915z"/><path fill="#90f" fill-rule="evenodd" d="m380.11517 270.66965l-13.276794 56.764923l-26.553589 0l-13.276794 -56.764923z"/><path fill="#90f" fill-rule="evenodd" d="m298.20798 242.42455l-57.087997 -13.20166l0 -26.40332l57.087997 -13.20166z"/><path fill="#90f" fill-rule="evenodd" d="m408.91412 189.6179l57.087982 13.20166l0 26.40332l-57.087982 13.20166z"/><path fill="#90f" fill-rule="evenodd" d="m295.5083 195.24748l-30.982422 -49.478394l18.777618 -18.671326l49.75998 30.807053z"/><path fill="#90f" fill-rule="evenodd" d="m411.33405 235.73784l30.982391 49.47838l-18.777588 18.671326l-49.76001 -30.807037z"/><path fill="#90f" fill-rule="evenodd" d="m333.33868 273.3549l-49.75998 30.807068l-18.777618 -18.671326l30.982391 -49.478394z"/><path fill="#90f" fill-rule="evenodd" d="m374.0595 158.18466l49.76001 -30.80706l18.777588 18.671333l-30.982391 49.47838z"/><path fill="#000" fill-opacity="0" fill-rule="evenodd" d="m261.95013 177.27296l-63.721786 0.89764404l-43.078735 -66.4147"/><path fill-rule="evenodd" stroke="#90f" stroke-linecap="butt" stroke-linejoin="round" stroke-width="12" d="m261.95013 177.27296l-63.721786 0.89764404l-18.329361 -28.258469"/><path fill-rule="nonzero" stroke="#90f" stroke-linecap="butt" stroke-width="12" d="m158.4147 116.78971c9.1465 -5.932724 21.370636 -3.3274384 27.30336 5.819069c5.932724 9.146515 3.327423 21.370636 -5.8190765 27.30336c-9.146515 5.932724 -21.370636 3.3274384 -27.30336 -5.8190613c-5.932724 -9.146515 -3.3274384 -21.370644 5.8190765 -27.303368z"/><path fill="#000" fill-opacity="0" fill-rule="evenodd" d="m261.95013 253.40683l-29.616806 0.15222168l-37.6929 63.7218"/><path fill-rule="evenodd" stroke="#90f" stroke-linecap="butt" stroke-linejoin="round" stroke-width="12" d="m261.95013 253.40683l-29.616806 0.15222168l-14.538101 24.577393"/><path fill-rule="nonzero" stroke="#90f" stroke-linecap="butt" stroke-width="12" d="m197.69514 312.11667c-9.383377 -5.550476 -12.490555 -17.656769 -6.9400635 -27.040161c5.5504913 -9.383392 17.656784 -12.49057 27.040161 -6.9400635c9.383377 5.550476 12.490555 17.656769 6.9400635 27.040161c-5.550476 9.383392 -17.656784 12.49054 -27.040161 6.9400635z"/><path fill="#000" fill-opacity="0" fill-rule="evenodd" d="m445.78217 178.38452l63.72177 0.8976288l43.078766 -66.414696"/><path fill-rule="evenodd" stroke="#90f" stroke-linecap="butt" stroke-linejoin="round" stroke-width="12" d="m445.78217 178.38452l63.72177 0.8976288l18.329376 -28.258453"/><path fill-rule="nonzero" stroke="#90f" stroke-linecap="butt" stroke-width="12" d="m549.31757 117.90126c9.146545 5.932724 11.751831 18.156845 5.819092 27.30336c-5.9327393 9.1465 -18.15686 11.751801 -27.303345 5.8190765c-9.146545 -5.932724 -11.751831 -18.15686 -5.819092 -27.303368c5.9327393 -9.146507 18.15686 -11.751793 27.303345 -5.819069z"/><path fill="#000" fill-opacity="0" fill-rule="evenodd" d="m445.78217 254.51837l29.61679 0.15223694l37.6929 63.721786"/><path fill-rule="evenodd" stroke="#90f" stroke-linecap="butt" stroke-linejoin="round" stroke-width="12" d="m445.78217 254.51837l29.61679 0.15223694l14.538086 24.577377"/><path fill-rule="nonzero" stroke="#90f" stroke-linecap="butt" stroke-width="12" d="m510.03714 313.2282c-9.383392 5.5505066 -21.489685 2.4433289 -27.040161 -6.9400635c-5.5505066 -9.383392 -2.4433289 -21.489685 6.9400635 -27.040161c9.383392 -5.550476 21.489685 -2.4433289 27.040192 6.9400635c5.550476 9.383392 2.4432983 21.489685 -6.940094 27.040161z"/></g></svg>